<svg width="978" height="282" viewBox="0 0 978 282" fill="none" xmlns="http://www.w3.org/2000/svg">
<g clip-path="url(#clip0_8007_98)">
<mask id="mask0_8007_98" style="mask-type:luminance" maskUnits="userSpaceOnUse" x="0" y="0" width="978" height="282">
<path d="M978 0H0V282H978V0Z" fill="white"/>
</mask>
<g mask="url(#mask0_8007_98)">
<path d="M309.708 60.5427L309.675 82.1427C297.102 64.887 279.003 57.2583 255.515 57.2583C234.295 57.2583 217.678 64.8 202.648 80.4051C187.618 96.0273 180.329 114.43 180.329 137.264C180.329 160.098 188.21 178.691 203.241 194.418C218.271 210.145 234.295 217.426 255.515 217.426C274.556 217.426 297.974 210.544 309.69 196.121C310.179 220.779 300.276 236.906 280.363 244.274C257.277 252.841 228.001 244.969 214.836 227.105L190.442 251.433C206.955 270.844 233.301 282 260.119 282C306.429 282 343.935 258.175 343.935 189.883V60.5253H309.708V60.5427ZM296.457 172.592C287.198 181.958 275.568 186.633 261.566 186.633C247.564 186.633 235.934 181.958 226.676 172.592C217.417 163.243 212.779 151.478 212.779 137.299C212.779 123.119 217.417 111.354 226.676 101.988C235.934 92.6388 247.564 87.9642 261.566 87.9642C275.568 87.9642 287.198 92.6388 296.457 101.988C305.715 111.337 310.353 123.101 310.353 137.299C310.353 151.496 305.715 163.243 296.457 172.592Z" fill="white"/>
<path d="M129.362 60.543V82.4382C116.947 65.5302 99.1791 57.0675 76.0758 57.0675C55.0821 57.0675 37.1574 64.8003 22.3014 80.2488C7.42797 95.6973 0 114.708 0 137.264C0 159.82 7.42797 178.57 22.3014 194.123C37.1748 209.675 55.0995 217.443 76.0758 217.443C94.6284 217.443 117.523 210.788 129.362 196.121V214.107H163.625V60.543H129.362ZM116.093 172.575C106.817 181.924 95.1864 186.598 81.1671 186.598C67.1481 186.598 55.518 181.924 46.2417 172.575C36.9654 163.226 32.3274 151.444 32.3274 137.264C32.3274 123.084 36.9654 111.32 46.2417 101.953C55.518 92.604 67.1481 87.9297 81.1671 87.9297C95.1864 87.9297 106.817 92.604 116.093 101.953C125.369 111.302 130.007 123.067 130.007 137.264C130.007 151.444 125.351 163.226 116.093 172.575Z" fill="white"/>
<path d="M380.607 44.2776C392.862 44.2776 402.801 34.3725 402.801 22.1388C402.801 9.9051 392.862 0 380.607 0C368.349 0 358.425 9.9051 358.425 22.1388C358.425 34.3725 368.349 44.2776 380.607 44.2776Z" fill="#00CD5C"/>
<path d="M397.728 60.2649H363.465V213.829H397.728V60.2649Z" fill="white"/>
<path d="M558.093 149.341C558.093 190.473 528.258 217.148 491.73 217.148C468.87 217.148 451.014 206.582 440.43 189.917H439.872V215.758H425.643V11.2258H440.43V107.375H440.988C452.148 89.5977 471.102 79.3104 492.288 79.3104C531.048 79.3104 558.093 110.155 558.093 149.341ZM543.027 149.619C543.027 115.438 519.33 93.4902 490.614 93.4902C461.895 93.4902 439.872 118.218 439.872 149.619C439.872 181.02 463.569 203.246 490.893 203.246C521.841 203.246 543.027 179.908 543.027 149.619Z" fill="white"/>
<path d="M700.845 80.7006V215.757H686.895V189.917H686.337C675.738 206.582 657.9 217.148 635.04 217.148C598.509 217.148 568.677 190.473 568.677 149.341C568.677 108.209 595.722 79.3104 634.482 79.3104C655.668 79.3104 674.64 89.5977 685.779 107.375H686.337V80.7006H700.845ZM686.913 149.619C686.913 118.218 665.727 93.4902 636.174 93.4902C606.618 93.4902 583.758 115.438 583.758 149.619C583.758 179.908 604.944 203.246 635.895 203.246C663.201 203.246 686.913 181.576 686.913 149.619Z" fill="white"/>
<path d="M841.368 135.717V215.74H826.581V137.646C826.581 102.353 811.254 93.1776 792.282 93.1776C762.45 93.1776 742.659 115.125 742.659 148.751V215.723H727.872V80.6658H742.659V107.062H742.938C754.377 89.2851 773.61 79.2756 795.63 79.2756C822.693 79.3104 841.368 95.4192 841.368 135.717Z" fill="white"/>
<path d="M926.145 137.664L978 215.758H960.999L916.101 149.341H915.543L882.081 186.025V215.758H867.294V11.2258H882.081V165.172H882.36L959.325 80.7006H978L926.145 137.664Z" fill="white"/>
</g>
</g>
<defs>
<clipPath id="clip0_8007_98">
<rect width="978" height="282" fill="white"/>
</clipPath>
</defs>
</svg>
