<svg width="792" height="1120" viewBox="0 0 792 1120" fill="none" xmlns="http://www.w3.org/2000/svg">
<g clip-path="url(#clip0_8007_112)">
<rect width="792" height="1120" fill="white"/>
<g opacity="0.1">
<path d="M0 662.541L282.249 -0.320007H792V1119.68H0V662.541Z" fill="url(#paint0_linear_8007_112)"/>
<path d="M464.261 1119.68L738.875 478.123H792V1119.68H464.261Z" fill="url(#paint1_linear_8007_112)" fill-opacity="0.3"/>
<path d="M489.48 278.003L618.035 -0.320007H792V278.003H489.48Z" fill="url(#paint2_linear_8007_112)" fill-opacity="0.4"/>
<path d="M236.001 1119.68L426.845 675.994H792V1062.5C783.78 1081.56 775.573 1100.62 767.353 1119.68H236.001Z" fill="url(#paint3_linear_8007_112)" fill-opacity="0.4"/>
<path d="M792 1062.5C783.78 1081.56 775.574 1100.62 767.354 1119.68H464.261L654.178 675.994H792V1062.5Z" fill="url(#paint4_linear_8007_112)"/>
</g>
<rect y="0.320007" width="792" height="32" fill="#0068FF"/>
<rect y="1088.32" width="792" height="32" fill="#0068FF"/>
<circle cx="756" cy="47.32" r="6" fill="#00CD5C"/>
<circle cx="740" cy="47.32" r="6" fill="#F8B14B"/>
<circle cx="724" cy="47.32" r="6" fill="#FF6852"/>
<g clip-path="url(#clip1_8007_112)">
<mask id="mask0_8007_112" style="mask-type:luminance" maskUnits="userSpaceOnUse" x="27" y="43" width="97" height="29">
<path d="M124 43.32H27V71.32H124V43.32Z" fill="white"/>
</mask>
<g mask="url(#mask0_8007_112)">
<path d="M57.7175 49.3313L57.7142 51.476C56.4671 49.7627 54.672 49.0052 52.3425 49.0052C50.2379 49.0052 48.5898 49.7541 47.099 51.3035C45.6083 52.8546 44.8854 54.6818 44.8854 56.949C44.8854 59.2162 45.6671 61.0624 47.1578 62.6239C48.6486 64.1854 50.2379 64.9084 52.3425 64.9084C54.2311 64.9084 56.5536 64.2251 57.7157 62.793C57.7642 65.2414 56.782 66.8426 54.8069 67.5741C52.5172 68.4247 49.6136 67.6431 48.3079 65.8694L45.8885 68.285C47.5262 70.2123 50.1393 71.32 52.7991 71.32C57.3922 71.32 61.1122 68.9545 61.1122 62.1736V49.3296H57.7175V49.3313ZM56.4032 60.4568C55.4849 61.3868 54.3314 61.8509 52.9426 61.8509C51.5539 61.8509 50.4004 61.3868 49.4821 60.4568C48.5638 59.5285 48.1038 58.3604 48.1038 56.9525C48.1038 55.5445 48.5638 54.3764 49.4821 53.4464C50.4004 52.5182 51.5539 52.054 52.9426 52.054C54.3314 52.054 55.4849 52.5182 56.4032 53.4464C57.3214 54.3747 57.7814 55.5428 57.7814 56.9525C57.7814 58.3621 57.3214 59.5285 56.4032 60.4568Z" fill="#0068FF"/>
<path d="M39.8304 49.3314V51.5054C38.5991 49.8266 36.8368 48.9863 34.5454 48.9863C32.4632 48.9863 30.6853 49.7541 29.2119 51.288C27.7367 52.8219 27 54.7095 27 56.9491C27 59.1886 27.7367 61.0504 29.2119 62.5946C30.6871 64.1388 32.4649 64.9101 34.5454 64.9101C36.3854 64.9101 38.6561 64.2493 39.8304 62.793V64.5788H43.2286V49.3314H39.8304ZM38.5143 60.4551C37.5943 61.3834 36.4408 61.8475 35.0503 61.8475C33.6599 61.8475 32.5064 61.3834 31.5863 60.4551C30.6663 59.5268 30.2063 58.357 30.2063 56.9491C30.2063 55.5411 30.6663 54.373 31.5863 53.443C32.5064 52.5147 33.6599 52.0506 35.0503 52.0506C36.4408 52.0506 37.5943 52.5147 38.5143 53.443C39.4344 54.3713 39.8944 55.5394 39.8944 56.9491C39.8944 58.357 39.4326 59.5268 38.5143 60.4551Z" fill="#0068FF"/>
<path d="M64.7494 47.7164C65.9648 47.7164 66.9506 46.7329 66.9506 45.5182C66.9506 44.3035 65.9648 43.32 64.7494 43.32C63.5336 43.32 62.5493 44.3035 62.5493 45.5182C62.5493 46.7329 63.5336 47.7164 64.7494 47.7164Z" fill="#00CD5C"/>
<path d="M66.4475 49.3038H63.0492V64.5512H66.4475V49.3038Z" fill="#0068FF"/>
<path d="M82.3528 58.1482C82.3528 62.2323 79.3937 64.8808 75.7708 64.8808C73.5035 64.8808 71.7325 63.8317 70.6827 62.1771H70.6274V64.7427H69.2161V44.4346H70.6827V53.9813H70.7381C71.8449 52.2162 73.7248 51.1948 75.8261 51.1948C79.6704 51.1948 82.3528 54.2574 82.3528 58.1482ZM80.8585 58.1758C80.8585 54.7819 78.5082 52.6027 75.6601 52.6027C72.8117 52.6027 70.6274 55.058 70.6274 58.1758C70.6274 61.2936 72.9777 63.5004 75.6878 63.5004C78.7572 63.5004 80.8585 61.1832 80.8585 58.1758Z" fill="#0068FF"/>
<path d="M96.5112 51.3328V64.7427H95.1276V62.1771H95.0723C94.0211 63.8317 92.2518 64.8807 89.9845 64.8807C86.3613 64.8807 83.4025 62.2322 83.4025 58.1482C83.4025 54.0641 86.0849 51.1948 89.9292 51.1948C92.0305 51.1948 93.9121 52.2162 95.0169 53.9813H95.0723V51.3328H96.5112ZM95.1294 58.1758C95.1294 55.058 93.0281 52.6027 90.097 52.6027C87.1656 52.6027 84.8983 54.7819 84.8983 58.1758C84.8983 61.1832 86.9996 63.5004 90.0693 63.5004C92.7776 63.5004 95.1294 61.3488 95.1294 58.1758Z" fill="#0068FF"/>
<path d="M110.449 56.7955V64.741H108.982V56.987C108.982 53.4827 107.462 52.5717 105.58 52.5717C102.621 52.5717 100.658 54.7509 100.658 58.0896V64.7393H99.1918V51.3294H100.658V53.9503H100.686C101.821 52.1852 103.728 51.1913 105.912 51.1913C108.596 51.1948 110.449 52.7943 110.449 56.7955Z" fill="#0068FF"/>
<path d="M118.857 56.9887L124 64.7427H122.314L117.861 58.1482H117.805L114.487 61.7906V64.7427H113.02V44.4346H114.487V59.7201H114.514L122.148 51.3328H124L118.857 56.9887Z" fill="#0068FF"/>
</g>
</g>
</g>
<defs>
<linearGradient id="paint0_linear_8007_112" x1="0" y1="559.68" x2="792" y2="559.68" gradientUnits="userSpaceOnUse">
<stop stop-color="#0068FF" stop-opacity="0.13"/>
<stop offset="1" stop-color="#033B8C"/>
</linearGradient>
<linearGradient id="paint1_linear_8007_112" x1="539" y1="940.5" x2="792" y2="798.902" gradientUnits="userSpaceOnUse">
<stop stop-color="#0E2753"/>
<stop offset="1" stop-color="#0068FF"/>
</linearGradient>
<linearGradient id="paint2_linear_8007_112" x1="489.48" y1="138.842" x2="792" y2="138.842" gradientUnits="userSpaceOnUse">
<stop stop-color="#4481DF"/>
<stop offset="1" stop-color="#0068FF"/>
</linearGradient>
<linearGradient id="paint3_linear_8007_112" x1="344" y1="898" x2="792" y2="897.837" gradientUnits="userSpaceOnUse">
<stop offset="0.322115" stop-color="#0068FF"/>
<stop offset="1" stop-color="#103D82"/>
</linearGradient>
<linearGradient id="paint4_linear_8007_112" x1="562" y1="898" x2="792" y2="963.5" gradientUnits="userSpaceOnUse">
<stop stop-color="#0068FF"/>
<stop offset="1" stop-color="#123168"/>
</linearGradient>
<clipPath id="clip0_8007_112">
<rect width="792" height="1120" fill="white"/>
</clipPath>
<clipPath id="clip1_8007_112">
<rect width="97" height="28" fill="white" transform="translate(27 43.32)"/>
</clipPath>
</defs>
</svg>
